<svg xmlns="http://www.w3.org/2000/svg" xmlns:xlink="http://www.w3.org/1999/xlink" width="500" zoomAndPan="magnify" viewBox="0 0 375 187.499995" height="250" preserveAspectRatio="xMidYMid meet" version="1.0"><defs><g/><clipPath id="3989f0499d"><path d="M 34.050781 63.367188 L 118.320312 63.367188 L 118.320312 79.5625 L 34.050781 79.5625 Z M 34.050781 63.367188 " clip-rule="nonzero"/></clipPath><clipPath id="69dd2f6490"><path d="M 100.414062 63.359375 L 118.328125 63.359375 L 118.328125 105.042969 L 100.414062 105.042969 Z M 100.414062 63.359375 " clip-rule="nonzero"/></clipPath><clipPath id="f7a44134e2"><path d="M 34.050781 89.308594 L 118.320312 89.308594 L 118.320312 105.5 L 34.050781 105.5 Z M 34.050781 89.308594 " clip-rule="nonzero"/></clipPath></defs><g clip-path="url(#3989f0499d)"><path fill="#5271ff" d="M 34.050781 63.367188 L 118.304688 63.367188 L 118.304688 79.5625 L 34.050781 79.5625 Z M 34.050781 63.367188 " fill-opacity="1" fill-rule="nonzero"/></g><g fill="#38b6ff" fill-opacity="1"><g transform="translate(58.724842, 156.34054)"><g><path d="M 34.195312 -21.589844 C 34.542969 -60.964844 35.40625 -104.835938 35.75 -117.269531 C 35.75 -119.167969 34.195312 -120.722656 32.296875 -120.722656 L 11.917969 -120.722656 C 10.015625 -120.722656 8.636719 -119.339844 8.636719 -117.441406 L 8.636719 -3.28125 C 8.636719 -1.382812 10.015625 0 11.917969 0 L 71.328125 0 C 73.230469 0 74.609375 -1.382812 74.609375 -3.28125 L 74.609375 -14.851562 C 74.609375 -16.753906 73.230469 -18.132812 71.328125 -18.132812 L 37.652344 -18.132812 C 35.75 -18.132812 34.195312 -19.6875 34.195312 -21.589844 Z M 34.195312 -21.589844 "/></g></g></g><g fill="#38b6ff" fill-opacity="1"><g transform="translate(141.272626, 156.34054)"><g><path d="M 89.117188 -120.722656 L 68.910156 -120.722656 C 67.011719 -120.722656 65.457031 -119.339844 65.457031 -117.441406 L 65.457031 -35.921875 C 65.457031 -27.289062 63.902344 -16.234375 50.257812 -16.234375 C 35.921875 -16.234375 35.578125 -31.777344 35.578125 -35.921875 L 35.578125 -117.441406 C 35.578125 -119.339844 34.195312 -120.722656 32.296875 -120.722656 L 11.917969 -120.722656 C 10.015625 -120.722656 8.460938 -119.167969 8.636719 -117.269531 C 8.980469 -105.351562 10.015625 -65.285156 10.015625 -35.921875 C 10.015625 -16.925781 18.824219 2.074219 50.605469 2.074219 C 81.691406 2.074219 91.015625 -13.988281 91.015625 -35.921875 C 91.015625 -65.285156 92.226562 -105.351562 92.570312 -117.269531 C 92.570312 -119.167969 91.015625 -120.722656 89.117188 -120.722656 Z M 89.117188 -120.722656 "/></g></g></g><g fill="#38b6ff" fill-opacity="1"><g transform="translate(242.644066, 156.34054)"><g><path d="M 86.871094 -120.722656 L 67.875 -120.722656 C 66.320312 -120.722656 65.109375 -119.859375 64.59375 -118.476562 C 63.210938 -114.332031 60.101562 -104.660156 54.574219 -90.328125 C 52.847656 -86.183594 51.46875 -82.382812 50.085938 -79.101562 C 49.738281 -78.0625 48.359375 -78.0625 48.011719 -79.101562 C 46.632812 -82.382812 45.078125 -86.183594 43.523438 -90.328125 C 37.996094 -104.660156 34.714844 -114.332031 33.503906 -118.476562 C 32.988281 -119.859375 31.777344 -120.722656 30.222656 -120.722656 L 11.054688 -120.722656 C 8.636719 -120.722656 6.910156 -118.132812 8.117188 -115.886719 C 10.535156 -110.878906 14.679688 -102.242188 20.035156 -90.328125 C 26.078125 -77.027344 29.707031 -68.046875 31.433594 -63.382812 C 32.125 -61.484375 32.125 -59.238281 31.433594 -57.339844 C 29.707031 -52.675781 26.078125 -43.695312 20.035156 -30.398438 C 14.679688 -18.480469 10.535156 -9.84375 8.117188 -4.835938 C 6.910156 -2.589844 8.636719 0.171875 11.054688 0.171875 L 30.222656 0.171875 C 31.777344 0.171875 32.988281 -0.863281 33.503906 -2.246094 C 34.714844 -6.390625 37.996094 -16.0625 43.523438 -30.398438 C 45.078125 -34.542969 46.632812 -38.339844 48.011719 -41.621094 C 48.359375 -42.660156 49.738281 -42.660156 50.085938 -41.621094 C 51.46875 -38.339844 52.847656 -34.542969 54.574219 -30.398438 C 60.101562 -16.0625 63.210938 -6.390625 64.59375 -2.246094 C 65.109375 -0.863281 66.320312 0.171875 67.875 0.171875 L 86.871094 0.171875 C 89.464844 0.171875 91.191406 -2.589844 89.980469 -4.835938 C 87.5625 -9.84375 83.246094 -18.480469 77.890625 -30.398438 C 72.019531 -43.695312 68.394531 -52.675781 66.664062 -57.339844 C 65.800781 -59.238281 65.800781 -61.484375 66.664062 -63.382812 C 68.394531 -68.046875 72.019531 -77.027344 77.890625 -90.328125 C 83.246094 -102.242188 87.5625 -110.878906 89.980469 -115.886719 C 91.191406 -118.132812 89.464844 -120.722656 86.871094 -120.722656 Z M 86.871094 -120.722656 "/></g></g></g><g clip-path="url(#69dd2f6490)"><path fill="#5271ff" d="M 100.414062 105.042969 L 100.414062 63.335938 L 118.328125 63.335938 L 118.328125 105.042969 Z M 100.414062 105.042969 " fill-opacity="1" fill-rule="nonzero"/></g><g clip-path="url(#f7a44134e2)"><path fill="#5271ff" d="M 34.050781 89.308594 L 118.304688 89.308594 L 118.304688 105.5 L 34.050781 105.5 Z M 34.050781 89.308594 " fill-opacity="1" fill-rule="nonzero"/></g></svg>